# xmcd CD database file
#
# Track frame offsets:
#	150
#	12955
#	29810
#	44694
#	60863
#	76165
#	88851
#	102937
#	119016
#	135138
#	150276
#
# Disc length: 2213 seconds
#
# Revision: 0
# Processed by: cddbd v1.5.2PL0 Copyright (c) Steve Scherf et al.
# Submitted via: CDex 1.79
#
DISCID=8108a30b
DTITLE=Tammy Cochran - 30 Something And Single
DYEAR=2009
DGENRE=Country
TTITLE0=The One That Got Away
TTITLE1=30 Something And Single
TTITLE2=Let It End
TTITLE3=You Don`t Want To Love Too Much
TTITLE4=All Over But The Leaving
TTITLE5=Stand By Your Man
TTITLE6=He`s Found Jesus
TTITLE7=Closer
TTITLE8=Angels In Waiting
TTITLE9=He Really Thinks He`s Got It
TTITLE10=Half The World Away (Shawn`s Song)
EXTD=YEAR: 2009
EXTT0=
EXTT1=
EXTT2=
EXTT3=
EXTT4=
EXTT5=
EXTT6=
EXTT7=
EXTT8=
EXTT9=
EXTT10=
PLAYORDER=
